{
	"asset":{
		"generator":"Khronos glTF Blender I/O v3.5.30",
		"version":"2.0"
	},
	"scene":0,
	"scenes":[
		{
			"name":"Scene",
			"nodes":[
				0
			]
		}
	],
	"nodes":[
		{
			"mesh":0,
			"name":"prxo.io"
		}
	],
	"meshes":[
		{
			"name":"prxo.io",
			"primitives":[
				{
					"attributes":{
						"POSITION":0,
						"TEXCOORD_0":1,
						"NORMAL":2
					},
					"indices":3
				}
			]
		}
	],
	"accessors":[
		{
			"bufferView":0,
			"componentType":5126,
			"count":933,
			"max":[
				4.611111164093018,
				0.1599999964237213,
				-0.0555555559694767
			],
			"min":[
				0.0555555559694767,
				-0.1599999964237213,
				-0.7777777910232544
			],
			"type":"VEC3"
		},
		{
			"bufferView":1,
			"componentType":5126,
			"count":933,
			"type":"VEC2"
		},
		{
			"bufferView":2,
			"componentType":5126,
			"count":933,
			"type":"VEC3"
		},
		{
			"bufferView":3,
			"componentType":5123,
			"count":2388,
			"type":"SCALAR"
		}
	],
	"bufferViews":[
		{
			"buffer":0,
			"byteLength":11196,
			"byteOffset":0,
			"target":34962
		},
		{
			"buffer":0,
			"byteLength":7464,
			"byteOffset":11196,
			"target":34962
		},
		{
			"buffer":0,
			"byteLength":11196,
			"byteOffset":18660,
			"target":34962
		},
		{
			"buffer":0,
			"byteLength":4776,
			"byteOffset":29856,
			"target":34963
		}
	],
	"buffers":[
		{
			"byteLength":34632,
			"uri":"data:application/octet-stream;base64,"
		}
	]
}
